<?xml version="1.0" standalone="no"?>
<!DOCTYPE svg PUBLIC "-//W3C//DTD SVG 20010904//EN"
 "http://www.w3.org/TR/2001/REC-SVG-20010904/DTD/svg10.dtd">
<svg version="1.0" xmlns="http://www.w3.org/2000/svg"
 width="1067.000000pt" height="1067.000000pt" viewBox="0 0 1067.000000 1067.000000"
 preserveAspectRatio="xMidYMid meet">
<metadata>
Created by potrace 1.11, written by Peter Selinger 2001-2013
</metadata>
<g transform="translate(0.000000,1067.000000) scale(0.100000,-0.100000)"
fill="#000000" stroke="none">
<path d="M9047 10534 c-1 -1 -42 -4 -92 -8 -267 -18 -506 -100 -738 -253 -272
-179 -486 -411 -723 -783 -97 -153 -236 -438 -327 -670 -58 -148 -133 -360
-142 -400 -2 -8 -16 -53 -30 -100 -14 -47 -28 -92 -30 -100 -7 -34 -37 -147
-45 -175 -8 -25 -32 -124 -45 -184 -33 -152 -66 -311 -70 -335 -2 -17 -11 -71
-20 -121 -27 -151 -47 -282 -60 -394 -3 -23 -7 -55 -9 -70 -6 -36 -25 -205
-31 -271 -3 -30 -7 -77 -10 -105 -8 -71 -13 -124 -21 -250 -3 -60 -8 -128 -10
-150 -26 -331 -26 -1385 1 -1760 2 -27 6 -95 10 -150 3 -55 8 -120 10 -145 12
-135 23 -248 31 -310 7 -60 13 -116 19 -170 2 -25 6 -59 9 -75 2 -17 10 -66
16 -110 6 -44 13 -91 15 -105 3 -14 7 -43 11 -65 13 -86 64 -372 74 -410 13
-56 51 -225 56 -255 7 -33 61 -241 80 -305 8 -27 19 -63 23 -80 59 -200 143
-437 202 -570 9 -22 34 -78 54 -125 51 -119 182 -369 246 -470 158 -250 365
-495 524 -620 22 -18 42 -35 45 -38 3 -4 32 -25 65 -47 33 -22 62 -43 65 -47
3 -3 57 -33 120 -67 105 -55 281 -122 354 -135 16 -3 52 -10 80 -16 90 -18
310 -28 376 -16 14 3 52 7 84 11 134 14 346 85 495 163 291 154 564 409 785
734 36 54 66 101 66 105 0 3 6 14 14 22 7 9 27 41 44 73 l30 56 0 2121 c1
1167 -2 2122 -6 2122 -4 1 -397 2 -874 3 l-868 1 0 -532 0 -533 550 0 550 0 0
-1313 0 -1313 -31 -50 c-261 -413 -711 -620 -1144 -525 -515 113 -917 629
-1174 1506 -42 145 -125 498 -136 580 -1 11 -10 61 -19 110 -8 50 -18 108 -21
130 -4 22 -11 69 -16 105 -6 36 -13 85 -15 110 -3 25 -6 56 -9 70 -2 14 -6 50
-10 80 -3 30 -8 71 -10 90 -3 19 -7 69 -11 110 -3 41 -7 91 -9 110 -3 33 -11
142 -20 270 -13 193 -19 440 -19 825 -1 427 6 651 29 950 10 125 15 188 20
215 2 14 6 57 10 95 4 39 8 84 10 100 19 152 26 203 29 220 4 21 12 74 22 139
3 21 8 48 10 60 5 27 22 120 29 166 19 110 86 396 127 535 81 279 148 455 258
680 129 265 238 423 405 590 279 280 600 386 959 319 133 -24 306 -114 431
-224 70 -61 70 -61 159 -164 54 -62 236 -324 236 -339 0 -2 22 -43 48 -90 l49
-86 73 152 c40 84 122 252 181 375 60 122 115 237 124 256 17 34 16 35 -29
120 -122 227 -228 385 -401 596 -86 105 -288 281 -410 357 -118 74 -310 153
-411 169 -21 3 -41 7 -44 9 -8 5 -218 23 -223 19z"/>
<path d="M20 10352 c-7 -3 -10 -1696 -10 -5053 l0 -5049 349 0 349 0 0 2126
c0 1169 3 2128 6 2132 5 4 846 7 953 3 18 -1 25 -11 37 -48 8 -27 26 -85 40
-131 54 -173 76 -244 144 -462 38 -124 81 -261 95 -305 57 -179 133 -423 267
-855 78 -250 160 -513 183 -585 22 -71 42 -134 43 -140 3 -11 130 -422 176
-565 16 -52 38 -122 48 -155 10 -33 48 -154 85 -270 36 -116 67 -215 69 -222
1 -7 38 -127 82 -267 l79 -256 2098 0 2097 0 0 548 0 547 -1365 0 -1365 0 0
4502 c0 3595 -3 4503 -12 4504 -7 0 -162 2 -345 2 l-331 2 -1 -4935 c0 -2714
-1 -4969 -1 -5010 l-2 -75 -13 45 c-7 25 -44 144 -83 265 -96 299 -143 449
-187 585 -20 63 -52 162 -70 220 -41 124 -156 487 -290 910 -53 168 -108 339
-122 380 -13 41 -33 102 -43 135 -10 33 -52 168 -95 300 -42 132 -108 339
-146 460 -39 121 -90 281 -114 355 -60 184 -158 493 -161 505 -1 6 -12 39 -23
74 -23 69 -26 91 -12 91 5 0 46 21 91 46 173 98 367 265 495 429 58 74 165
229 165 239 0 2 19 37 43 78 154 261 299 718 361 1138 9 67 25 195 31 255 3
33 8 76 10 95 26 216 26 1037 0 1169 -2 10 -6 57 -10 107 -4 49 -9 91 -10 94
-2 3 -6 30 -10 60 -13 115 -56 341 -89 470 -151 587 -410 994 -796 1249 -167
110 -424 206 -633 236 -27 3 -57 8 -67 10 -69 13 -352 18 -1113 19 -477 1
-872 0 -877 -2z m1830 -1045 c88 -13 121 -20 210 -43 485 -129 759 -510 856
-1194 35 -247 40 -839 9 -1031 -2 -13 -6 -49 -9 -79 -7 -62 -12 -92 -27 -166
-5 -28 -12 -64 -15 -80 -3 -16 -7 -37 -10 -46 -3 -10 -7 -30 -10 -44 -17 -93
-154 -446 -184 -474 -3 -3 -14 -21 -24 -40 -62 -112 -217 -279 -328 -353 -122
-80 -248 -132 -413 -170 -83 -19 -131 -20 -642 -24 l-553 -5 0 29 c-1 37 -1
3624 0 3684 l0 46 553 -2 c303 -2 568 -6 587 -8z"/>
</g>
</svg>
